<svg xmlns="http://www.w3.org/2000/svg" style="width: 150px; height: auto" id="Layer_2" data-name="Layer 2" viewBox="0 0 381.92 136.6">
    <defs>
        <style> .cls-1 { fill: #fff; } .cls-2, .cls-3 { fill: #d2ab67; } .cls-3 { fill-rule:
            evenodd; } </style>
    </defs>
    <g id="Layer_1-2" data-name="Layer 1">
        <path class="cls-1"
            d="M148.57,117.99l.19,4.28h-.51c-.1-.75-.23-1.29-.4-1.61-.28-.52-.65-.9-1.11-1.14-.46-.25-1.07-.37-1.82-.37h-2.56v13.89c0,1.12,.12,1.82,.36,2.1,.34,.38,.86,.56,1.57,.56h.63v.49h-7.74v-.49h.65c.78,0,1.33-.23,1.66-.7,.2-.29,.3-.94,.3-1.96v-13.89h-2.18c-.85,0-1.46,.06-1.81,.19-.47,.17-.86,.49-1.19,.98-.33,.48-.53,1.13-.59,1.96h-.51l.19-4.28h14.88Z"></path>
        <path class="cls-1"
            d="M157.78,126.83c.17,0,.32,0,.44,0,.12,0,.22,0,.3,0,1.72,0,3.01-.38,3.88-1.13,.87-.76,1.31-1.71,1.31-2.87s-.35-2.06-1.05-2.77c-.7-.71-1.64-1.07-2.8-1.07-.51,0-1.21,.08-2.08,.25v7.58Zm12.91,9.36h-4.87l-6.18-8.51c-.44,.02-.81,.03-1.08,.03-.11,0-.24,0-.37,0-.13,0-.27,0-.41-.02v5.3c0,1.14,.12,1.85,.38,2.13,.34,.39,.85,.59,1.52,.59h.71v.49h-7.8v-.49h.68c.77,0,1.32-.25,1.65-.75,.19-.27,.28-.93,.28-1.97v-11.78c0-1.14-.12-1.85-.38-2.13-.35-.39-.86-.59-1.55-.59h-.68v-.49h6.63c1.94,0,3.36,.14,4.27,.42,.92,.28,1.7,.81,2.33,1.56,.64,.75,.96,1.66,.96,2.7,0,1.12-.37,2.09-1.09,2.91-.73,.82-1.86,1.4-3.39,1.75l3.77,5.21c.86,1.2,1.6,2,2.21,2.39,.61,.4,1.42,.64,2.41,.75v.49Z"></path>
        <path class="cls-1"
            d="M185.28,129.13l-3.07-7.34-3.15,7.34h6.21Zm.41,.99h-7.05l-1.22,2.85c-.3,.7-.46,1.24-.46,1.58,0,.27,.13,.52,.4,.73,.26,.21,.83,.34,1.71,.41v.49h-5.74v-.49c.76-.13,1.25-.31,1.47-.52,.46-.43,.96-1.3,1.51-2.62l6.4-14.98h.45l6.33,15.14c.51,1.22,.97,2,1.39,2.37,.42,.36,.99,.56,1.74,.61v.49h-7.17v-.49c.72-.04,1.21-.16,1.47-.36,.26-.21,.38-.46,.38-.76,0-.39-.18-1.02-.54-1.87l-1.08-2.59Z"></path>
        <path class="cls-1"
            d="M211.55,117.99v.49c-.64,.12-1.13,.32-1.46,.62-.47,.44-.89,1.12-1.26,2.03l-6.32,15.47h-.49l-6.8-15.68c-.35-.81-.6-1.3-.74-1.48-.22-.28-.5-.5-.83-.66-.32-.16-.76-.26-1.32-.3v-.49h7.42v.49c-.84,.08-1.39,.22-1.64,.43-.25,.21-.38,.47-.38,.79,0,.44,.21,1.14,.62,2.09l4.63,10.66,4.3-10.52c.42-1.04,.63-1.76,.63-2.16,0-.26-.13-.51-.39-.74-.26-.24-.7-.41-1.31-.5-.05,0-.12-.02-.23-.04v-.49h5.57Z"></path>
        <path class="cls-1"
            d="M220.32,118.98v7.19h4.01c1.04,0,1.73-.16,2.08-.47,.47-.41,.72-1.13,.78-2.17h.49v6.34h-.49c-.12-.89-.25-1.46-.38-1.71-.16-.31-.43-.56-.79-.74-.37-.18-.93-.27-1.69-.27h-4.01v6c0,.81,.04,1.29,.11,1.47,.07,.17,.2,.32,.38,.42,.18,.11,.52,.16,1.02,.16h3.08c1.02,0,1.77-.07,2.24-.22,.46-.14,.91-.43,1.34-.85,.55-.55,1.12-1.39,1.7-2.51h.55l-1.57,4.56h-14.02v-.49h.65c.43,0,.84-.11,1.22-.31,.29-.14,.48-.36,.59-.65,.11-.29,.16-.87,.16-1.76v-11.83c0-1.15-.11-1.86-.35-2.13-.32-.36-.86-.54-1.61-.54h-.65v-.49h14.03l.19,4.01h-.52c-.19-.97-.39-1.63-.62-1.99-.23-.36-.57-.64-1.01-.83-.36-.13-.99-.2-1.89-.2h-4.99Z"></path>
        <path class="cls-1"
            d="M249.78,131.17l.44,.1-1.57,4.93h-14.08v-.49h.68c.77,0,1.32-.25,1.65-.75,.19-.28,.28-.94,.28-1.97v-11.78c0-1.13-.12-1.84-.38-2.13-.35-.39-.86-.59-1.55-.59h-.68v-.49h8.24v.49c-.97,0-1.64,.08-2.04,.27-.39,.18-.65,.42-.8,.7-.14,.28-.21,.96-.21,2.03v11.47c0,.75,.07,1.25,.21,1.53,.11,.19,.27,.33,.5,.42,.22,.09,.92,.13,2.1,.13h1.33c1.4,0,2.38-.1,2.94-.31,.56-.21,1.08-.57,1.55-1.09,.46-.52,.93-1.35,1.4-2.47"></path>
        <rect class="cls-2" y="86.7" width="116.29" height="1.13"></rect>
        <polygon class="cls-3"
            points="136.08 76.88 138.64 84.83 147 84.81 140.23 89.71 142.83 97.65 136.08 92.73 129.33 97.65 131.93 89.71 125.16 84.81 133.51 84.83 136.08 76.88"></polygon>
        <polygon class="cls-3"
            points="163.97 76.88 166.53 84.83 174.89 84.81 168.12 89.71 170.72 97.65 163.97 92.73 157.22 97.65 159.82 89.71 153.05 84.81 161.4 84.83 163.97 76.88"></polygon>
        <polygon class="cls-3"
            points="191.86 76.88 194.43 84.83 202.78 84.81 196.01 89.71 198.61 97.65 191.86 92.73 185.11 97.65 187.71 89.71 180.94 84.81 189.3 84.83 191.86 76.88"></polygon>
        <polygon class="cls-3"
            points="219.75 76.88 222.32 84.83 230.67 84.81 223.9 89.71 226.5 97.65 219.75 92.73 213 97.65 215.6 89.71 208.84 84.81 217.19 84.83 219.75 76.88"></polygon>
        <polygon class="cls-3"
            points="247.65 76.88 250.21 84.83 258.56 84.81 251.8 89.71 254.39 97.65 247.65 92.73 240.9 97.65 243.49 89.71 236.73 84.81 245.08 84.83 247.65 76.88"></polygon>
        <rect class="cls-2" x="267.44" y="86.7" width="114.48" height="1.13"></rect>
        <g id="Layer_2-2" data-name="Layer 2-2">
            <g>
                <path class="cls-1"
                    d="M13.49,54.22c.52,.86,1.54,1.45,3.04,1.81s3.89,.52,7.18,.52c.18,0,.26,.18,.26,.52s-.08,.52-.26,.52c-2.4,0-4.28-.02-5.64-.08l-7.67-.08-5.81,.08c-1.06,.06-2.52,.08-4.4,.08-.12,0-.18-.18-.18-.52s.06-.52,.18-.52c2.29,0,3.98-.14,5.07-.44,1.08-.3,1.82-.87,2.2-1.71s.57-2.15,.57-3.92V9.69c0-1.76-.19-3.05-.57-3.88-.38-.82-1.12-1.39-2.2-1.71s-2.77-.49-5.07-.49c-.12,0-.18-.18-.18-.52s.06-.52,.18-.52l4.32,.08c2.46,.12,4.4,.18,5.81,.18s3.02-.08,4.84-.26c4.58-.18,7.07-.26,7.49-.26,5.17,0,9.37,1.19,12.59,3.57,3.23,2.38,4.84,6,4.84,10.88,0,3.94-.96,7.24-2.9,9.91-1.94,2.68-4.39,4.65-7.36,5.95-2.96,1.29-6.03,1.94-9.2,1.94-1.76,0-3.2-.14-4.32-.44-.18,0-.26-.14-.26-.44,0-.18,.05-.36,.13-.52,.08-.18,.19-.24,.31-.18,.94,.24,2,.36,3.17,.36,4.17,0,7.71-1.26,10.62-3.79,2.9-2.52,4.36-6.19,4.36-11.01,0-3.11-.62-5.8-1.84-8.06-1.24-2.26-2.93-3.99-5.07-5.2-2.14-1.2-4.51-1.81-7.09-1.81-2.4,0-4.11,.12-5.11,.36s-1.71,.77-2.15,1.63c-.44,.86-.65,2.33-.65,4.45V50.12c0,1.88,.26,3.25,.8,4.09Z"></path>
                <path class="cls-1"
                    d="M80.47,5.5c2.44,2.14,3.65,4.98,3.65,8.5,0,3.06-.89,5.86-2.69,8.42s-4.23,4.57-7.31,6.03-6.42,2.2-10,2.2c-.24,0-1.5-.08-3.79-.26v20.08c0,1.82,.19,3.14,.57,3.96,.38,.82,1.11,1.38,2.15,1.68,1.06,.3,2.76,.44,5.11,.44,.18,0,.26,.18,.26,.52s-.08,.52-.26,.52c-1.76,0-3.17-.02-4.23-.08l-5.99-.08-5.81,.08c-1.06,.06-2.52,.08-4.4,.08-.12,0-.18-.18-.18-.52s.06-.52,.18-.52c2.34,0,4.07-.14,5.15-.44,1.08-.3,1.83-.87,2.25-1.71,.4-.85,.62-2.15,.62-3.92V9.69c0-1.76-.19-3.05-.57-3.88-.38-.82-1.12-1.39-2.2-1.71s-2.77-.49-5.07-.49c-.18,0-.26-.18-.26-.52s.08-.52,.26-.52l4.23,.08c2.34,.12,4.28,.18,5.81,.18,1.29,0,2.51-.02,3.65-.08s2.13-.12,2.95-.18c2.12-.18,3.99-.26,5.64-.26,4.4,0,7.82,1.07,10.26,3.21h0Zm-4.58,1c-2.2-2.06-5.39-3.08-9.56-3.08-2.24,0-3.79,.42-4.67,1.24-.88,.82-1.32,2.56-1.32,5.2V28.36c1.7,.18,3.46,.26,5.28,.26,4.87,0,8.36-1.01,10.44-3.04,2.08-2.02,3.13-5.09,3.13-9.2,0-4.52-1.1-7.81-3.3-9.87h-.01Zm8.63,43.54c-4.26-5.02-9.38-11.96-15.37-20.83l4.23-1.32c5.17,7.34,9.49,13.05,12.95,17.13,3.46,4.08,6.53,7.02,9.2,8.81,2.67,1.79,5.3,2.69,7.88,2.69,.18,0,.26,.18,.26,.52s-.08,.52-.26,.52h-10.21c-1.52,0-4.42-2.51-8.68-7.53h0Z"></path>
                <path class="cls-1"
                    d="M106.31,57.07c0-.36,.06-.52,.18-.52,2.29,0,3.98-.14,5.07-.44,1.08-.3,1.82-.87,2.2-1.71s.57-2.15,.57-3.92V9.69c0-1.76-.19-3.05-.57-3.88-.38-.82-1.12-1.39-2.2-1.71-1.08-.32-2.77-.49-5.07-.49-.12,0-.18-.18-.18-.52s.06-.52,.18-.52h34.87c.52,0,.8,.26,.8,.8l.18,10.65c0,.18-.17,.26-.49,.26s-.49-.08-.49-.26c0-3-.8-5.37-2.38-7.13-1.58-1.76-3.67-2.64-6.25-2.64h-6.08c-2.24,0-3.88,.14-4.93,.44-1.06,.3-1.77,.86-2.15,1.68s-.57,2.12-.57,3.88V50.12c0,1.7,.19,2.95,.57,3.75,.38,.8,1.08,1.33,2.12,1.63,1.02,.3,2.69,.44,4.98,.44h8.11c2.34,0,4.36-1.02,6.03-3.08,1.68-2.06,2.75-4.76,3.21-8.11,0-.18,.18-.25,.52-.23,.36,.04,.52,.13,.52,.31-.52,3.7-.8,7.52-.8,11.45,0,.48-.11,.81-.31,1.01s-.57,.31-1.11,.31h-36.37c-.12,0-.18-.18-.18-.52h.01Zm29.95-25.73c-1.12-1.06-3.08-1.58-5.9-1.58h-13.57v-1.68h13.83c2.7,0,4.58-.45,5.64-1.37,1.06-.9,1.58-2.48,1.58-4.71,0-.12,.18-.18,.52-.18s.52,.06,.52,.18l-.08,6.96c0,1.7,.02,2.96,.08,3.79l.08,4.14c0,.12-.18,.18-.52,.18s-.52-.06-.52-.18c0-2.64-.56-4.49-1.68-5.55h.01Z"></path>
                <path class="cls-1"
                    d="M163.4,19.29c1.12,1.7,2.48,3.13,4.09,4.27s3.86,2.57,6.74,4.27c3.05,1.82,5.42,3.33,7.09,4.53s3.11,2.75,4.32,4.62c1.2,1.88,1.81,4.14,1.81,6.78s-.68,5.27-2.02,7.53c-1.36,2.26-3.36,4.05-6.03,5.37s-5.94,1.99-9.82,1.99c-2.06,0-4.01-.21-5.86-.65s-3.89-1.21-6.12-2.33c-.3-.18-.49-.38-.57-.62-.08-.24-.17-.58-.23-1.06l-1.32-11.45v-.08c0-.24,.14-.37,.44-.39s.46,.07,.52,.31c.58,4.05,2.14,7.57,4.67,10.57s5.99,4.49,10.39,4.49c3.11,0,5.74-.85,7.88-2.56,2.14-1.7,3.21-4.37,3.21-8.01,0-2.64-.58-4.92-1.76-6.82-1.18-1.9-2.59-3.49-4.27-4.76-1.68-1.26-3.95-2.75-6.83-4.45-2.82-1.64-5.03-3.08-6.65-4.32-1.62-1.24-3-2.77-4.14-4.62s-1.71-4.07-1.71-6.65c0-2.94,.75-5.43,2.25-7.49,1.5-2.06,3.45-3.59,5.86-4.62,2.4-1.02,4.99-1.55,7.75-1.55,3.23,0,6.57,.7,10.05,2.12,.88,.36,1.32,.86,1.32,1.5l.8,9.33c0,.24-.17,.36-.49,.36s-.51-.12-.57-.36c-.24-3.06-1.38-5.78-3.44-8.19s-4.99-3.61-8.81-3.61c-3.52,0-6.11,1.02-7.75,3.08-1.64,2.06-2.46,4.52-2.46,7.4,0,2.34,.56,4.38,1.68,6.08v-.02Z"></path>
                <path class="cls-1"
                    d="M200.04,6.69c-1.7,1.76-2.84,4.9-3.44,9.43,0,.12-.18,.18-.52,.18s-.52-.06-.52-.18c.24-1.58,.5-4.13,.8-7.62s.44-6.12,.44-7.88c0-.3,.18-.44,.52-.44s.52,.14,.52,.44c0,1.3,1.56,1.94,4.67,1.94,5.05,.18,10.95,.26,17.7,.26,3.46,0,7.13-.06,11.01-.18l5.99-.08c2.12,0,3.67-.14,4.67-.44,1-.3,1.64-.88,1.94-1.76,.06-.24,.24-.36,.52-.36s.44,.12,.44,.36c-.18,1.64-.36,4.15-.52,7.53-.18,3.38-.26,6.12-.26,8.24,0,.12-.18,.18-.52,.18s-.52-.06-.52-.18c0-3.12-.32-5.52-.96-7.22s-1.74-2.94-3.26-3.7c-1.52-.76-3.67-1.14-6.43-1.14-3.06,0-5.2,.11-6.43,.31-1.24,.2-2.07,.69-2.51,1.45s-.67,2.12-.67,4.05V50.47c0,1.82,.2,3.14,.62,3.96,.4,.82,1.24,1.38,2.46,1.68,1.24,.3,3.17,.44,5.81,.44,.12,0,.18,.18,.18,.52s-.06,.52-.18,.52c-1.94,0-3.46-.02-4.58-.08l-6.78-.08-6.43,.08c-1.18,.06-2.79,.08-4.84,.08-.12,0-.18-.18-.18-.52s.06-.52,.18-.52c2.64,0,4.58-.14,5.81-.44,1.24-.3,2.07-.87,2.51-1.71s.67-2.15,.67-3.92V9.69c0-1.94-.24-3.27-.7-4.01-.48-.74-1.31-1.19-2.51-1.37s-3.39-.26-6.56-.26c-3.7,0-6.4,.88-8.11,2.64h0Z"></path>
                <path class="cls-1"
                    d="M265.43,54.43c.38,.82,1.1,1.38,2.15,1.68s2.76,.44,5.11,.44c.12,0,.18,.18,.18,.52s-.06,.52-.18,.52c-1.76,0-3.14-.02-4.14-.08l-6.17-.08-5.9,.08c-1.06,.06-2.5,.08-4.32,.08-.18,0-.26-.18-.26-.52s.08-.52,.26-.52c2.29,0,3.98-.14,5.07-.44,1.08-.3,1.83-.87,2.25-1.71,.4-.85,.62-2.15,.62-3.92V9.69c0-1.76-.2-3.05-.62-3.88-.42-.82-1.15-1.39-2.25-1.71-1.08-.32-2.77-.49-5.07-.49-.18,0-.26-.18-.26-.52s.08-.52,.26-.52l4.32,.08c2.46,.12,4.43,.18,5.9,.18,1.64,0,3.7-.06,6.17-.18l4.14-.08c.12,0,.18,.18,.18,.52s-.06,.52-.18,.52c-2.29,0-3.98,.18-5.06,.52-1.08,.36-1.82,.95-2.2,1.81-.38,.86-.57,2.15-.57,3.92V50.47c0,1.82,.19,3.14,.57,3.96h0Z"></path>
                <path class="cls-1"
                    d="M296,54.74c-4.73-2.61-8.36-6.13-10.88-10.57-2.52-4.43-3.79-9.3-3.79-14.58,0-5.69,1.43-10.65,4.27-14.89,2.84-4.24,6.75-7.47,11.71-9.74,4.96-2.26,10.52-3.39,16.69-3.39,3.23,0,6.19,.32,8.89,.96,2.7,.64,4.99,1.56,6.87,2.73,.4,.24,.64,.44,.7,.62s.12,.62,.18,1.32l1.06,9.87c0,.18-.17,.3-.49,.36s-.51,0-.57-.18c-1.3-4.87-3.33-8.49-6.12-10.83-2.79-2.34-6.71-3.52-11.76-3.52s-9.25,1.05-13.13,3.13c-3.88,2.08-6.93,5.05-9.17,8.89-2.24,3.84-3.34,8.36-3.34,13.52,0,4.88,1.01,9.51,3.04,13.91,2.02,4.4,5.14,8.01,9.33,10.83,4.2,2.82,9.38,4.23,15.54,4.23,4.34,0,7.42-.83,9.2-2.51s2.69-4.45,2.69-8.32c0-3.05-.2-5.18-.62-6.39-.42-1.2-1.3-2.01-2.64-2.43-1.36-.4-3.7-.62-7.05-.62-.36,0-.52-.24-.52-.7,0-.18,.05-.33,.13-.49,.08-.14,.19-.21,.31-.21,4.52,.3,8.17,.44,10.93,.44s5.46-.08,8.45-.26c.12,0,.23,.07,.31,.23,.08,.14,.13,.27,.13,.39,0,.42-.14,.62-.44,.62-1.52-.06-2.62,.13-3.26,.57-.64,.44-1.06,1.33-1.24,2.69-.18,1.35-.26,3.7-.26,7.05,0,2.64,.11,4.52,.31,5.64s.31,1.82,.31,2.12c0,.36-.06,.58-.18,.7s-.38,.24-.8,.36c-7.11,1.58-13.15,2.38-18.14,2.38-6.4,0-11.96-1.31-16.69-3.92h.02Z"></path>
                <path class="cls-1"
                    d="M343.17,57.07c0-.36,.06-.52,.18-.52,2.29,0,3.98-.14,5.06-.44s1.82-.87,2.2-1.71,.57-2.15,.57-3.92V9.69c0-1.76-.19-3.05-.57-3.88-.38-.82-1.12-1.39-2.2-1.71s-2.77-.49-5.06-.49c-.12,0-.18-.18-.18-.52s.06-.52,.18-.52h34.87c.52,0,.8,.26,.8,.8l.18,10.65c0,.18-.17,.26-.49,.26s-.49-.08-.49-.26c0-3-.8-5.37-2.38-7.13-1.58-1.76-3.67-2.64-6.25-2.64h-6.08c-2.24,0-3.88,.14-4.93,.44-1.05,.3-1.77,.86-2.15,1.68s-.57,2.12-.57,3.88V50.12c0,1.7,.19,2.95,.57,3.75,.38,.8,1.08,1.33,2.12,1.63,1.02,.3,2.69,.44,4.98,.44h8.11c2.34,0,4.36-1.02,6.03-3.08s2.75-4.76,3.21-8.11c0-.18,.18-.25,.52-.23,.36,.04,.52,.13,.52,.31-.52,3.7-.8,7.52-.8,11.45,0,.48-.11,.81-.31,1.01s-.57,.31-1.11,.31h-36.37c-.12,0-.18-.18-.18-.52h.01Zm29.95-25.73c-1.12-1.06-3.08-1.58-5.9-1.58h-13.57v-1.68h13.83c2.7,0,4.58-.45,5.64-1.37s1.58-2.48,1.58-4.71c0-.12,.18-.18,.52-.18s.52,.06,.52,.18l-.08,6.96c0,1.7,.02,2.96,.08,3.79l.08,4.14c0,.12-.18,.18-.52,.18s-.52-.06-.52-.18c0-2.64-.56-4.49-1.68-5.55h.01Z"></path>
            </g>
        </g>
    </g>
</svg>